<svg width="512" height="512" viewBox="0 0 512 512" fill="none" xmlns="http://www.w3.org/2000/svg">
<path d="M169.803 4.83886C170.799 4.83141 170.799 4.83141 171.816 4.82381C174.004 4.80927 176.191 4.8024 178.379 4.79687C179.508 4.79263 179.508 4.79263 180.66 4.7883C184.648 4.77333 188.637 4.76409 192.625 4.75976C196.715 4.7543 200.804 4.73031 204.893 4.70179C208.063 4.68301 211.233 4.67795 214.403 4.67642C215.909 4.67343 217.415 4.6655 218.92 4.65224C235.658 4.51543 249.392 7.49871 261.875 19.3125C270.947 29.0401 276.168 40.6087 276 54C277.106 53.99 277.106 53.99 278.235 53.9798C285.236 53.9193 292.237 53.8738 299.239 53.8446C302.837 53.829 306.435 53.8079 310.033 53.7737C313.515 53.7407 316.996 53.7231 320.478 53.7154C322.432 53.7072 324.386 53.6839 326.34 53.6601C343.096 53.657 356.684 58.5322 369 70C380.662 82.1189 385.308 96.5219 385.291 113.036C385.297 113.984 385.304 114.931 385.311 115.908C385.33 119.006 385.334 122.105 385.336 125.203C385.342 127.372 385.349 129.54 385.356 131.709C385.368 136.237 385.372 140.766 385.371 145.295C385.37 151.094 385.398 156.893 385.432 162.692C385.454 167.164 385.458 171.635 385.457 176.106C385.46 178.245 385.469 180.384 385.484 182.522C385.504 185.509 385.498 188.495 385.486 191.481C385.497 192.361 385.508 193.24 385.52 194.145C385.464 199.584 384.618 202.683 381 207C378.073 209.373 376.317 209.96 372.563 210.438C367.511 209.817 364.515 207.901 361.351 203.931C359.463 199.835 359.591 196.253 359.631 191.794C359.626 190.415 359.626 190.415 359.62 189.008C359.613 187.015 359.614 185.022 359.62 183.029C359.629 179.866 359.619 176.704 359.603 173.542C359.563 164.552 359.562 155.561 359.564 146.571C359.564 141.067 359.545 135.563 359.515 130.058C359.504 126.957 359.516 123.856 359.529 120.755C359.507 108.284 359.124 97.2663 350.07 87.7226C344.06 82.7217 337.007 79.9105 329.243 79.7947C328.062 79.7747 326.881 79.7548 325.665 79.7342C324.39 79.7175 323.115 79.7008 321.801 79.6836C319.843 79.6524 319.843 79.6524 317.845 79.6206C314.378 79.5655 310.911 79.516 307.444 79.4678C303.905 79.4175 300.365 79.3618 296.826 79.3066C289.884 79.1991 282.942 79.0977 276 79C276.026 79.5744 276.052 80.1489 276.079 80.7407C276.184 83.3685 276.249 85.9959 276.313 88.625C276.354 89.5286 276.396 90.4323 276.44 91.3633C276.522 95.8591 276.52 99.0044 273.606 102.586C269.947 105.976 268.321 106.126 263.44 106.14C262.258 106.146 261.076 106.152 259.859 106.158C258.555 106.159 257.252 106.16 255.909 106.161C254.528 106.166 253.146 106.171 251.765 106.176C248.007 106.189 244.248 106.196 240.49 106.2C238.142 106.203 235.795 106.207 233.447 106.212C226.104 106.225 218.761 106.235 211.418 106.239C202.938 106.243 194.459 106.261 185.979 106.29C179.427 106.311 172.875 106.322 166.323 106.323C162.409 106.324 158.494 106.33 154.58 106.348C150.897 106.364 147.215 106.366 143.532 106.358C141.537 106.356 139.543 106.37 137.548 106.384C136.358 106.379 135.167 106.373 133.941 106.367C132.908 106.369 131.876 106.37 130.812 106.372C127.522 105.937 125.665 104.95 123 103C119.533 97.9916 119.631 93.4751 119.813 87.625C119.826 86.7935 119.84 85.9621 119.854 85.1055C119.889 83.07 119.942 81.0349 120 79C112.61 79.0382 105.221 79.0979 97.8314 79.1839C94.3992 79.2232 90.9672 79.2555 87.5347 79.271C83.5775 79.2892 79.621 79.3392 75.6641 79.3906C74.4471 79.3918 73.23 79.3931 71.976 79.3943C61.601 79.5706 53.4378 81.7864 45.7579 89C40.2115 95.3106 37.8798 101.679 37.8658 109.977C37.8614 111.209 37.8569 112.44 37.8523 113.709C37.8524 115.078 37.8526 116.446 37.8529 117.815C37.8496 119.267 37.8459 120.72 37.8417 122.172C37.8317 126.169 37.828 130.165 37.8254 134.161C37.8215 138.47 37.8119 142.778 37.8031 147.086C37.7834 157.493 37.7733 167.9 37.7644 178.307C37.76 183.208 37.7547 188.109 37.7494 193.01C37.7324 209.303 37.7179 225.595 37.7107 241.887C37.7088 246.115 37.7068 250.342 37.7049 254.57C37.7044 255.621 37.7039 256.672 37.7034 257.755C37.6951 274.777 37.6698 291.8 37.6373 308.822C37.6042 326.299 37.5862 343.776 37.583 361.253C37.5809 371.066 37.5721 380.878 37.5466 390.691C37.5249 399.048 37.5168 407.404 37.5265 415.761C37.5311 420.024 37.5292 424.286 37.5098 428.548C37.4921 432.454 37.4932 436.36 37.5087 440.266C37.5111 441.675 37.5067 443.085 37.4948 444.494C37.4055 455.791 39.0236 464.788 46.9297 473.242C53.2391 478.599 60.4591 481.123 68.6225 481.131C69.2987 481.133 69.9748 481.136 70.6715 481.138C72.9423 481.144 75.213 481.143 77.4837 481.142C79.1099 481.145 80.736 481.148 82.3622 481.152C85.8669 481.16 89.3716 481.165 92.8764 481.169C98.4189 481.175 103.961 481.191 109.504 481.21C111.401 481.216 113.298 481.223 115.195 481.229C116.146 481.232 117.096 481.235 118.075 481.239C130.98 481.281 143.884 481.314 156.789 481.326C165.492 481.334 174.195 481.357 182.898 481.395C187.504 481.415 192.109 481.427 196.715 481.422C201.048 481.418 205.381 481.432 209.714 481.459C211.303 481.466 212.892 481.466 214.481 481.459C216.653 481.45 218.824 481.466 220.997 481.488C222.211 481.49 223.426 481.493 224.678 481.495C229.416 482.215 232.374 484.536 235.875 487.688C237.683 491.404 237.638 494.955 237 499C234.932 503.063 233.265 505.402 229 507C225.902 507.254 225.902 507.254 222.184 507.261C221.499 507.265 220.814 507.268 220.108 507.272C217.813 507.283 215.518 507.279 213.223 507.275C211.577 507.279 209.93 507.284 208.284 507.29C203.811 507.304 199.337 507.304 194.864 507.302C191.124 507.301 187.385 507.305 183.645 507.31C174.814 507.321 165.984 507.322 157.153 507.316C148.062 507.31 138.971 507.322 129.881 507.343C122.065 507.361 114.249 507.367 106.433 507.364C101.77 507.362 97.1075 507.364 92.4447 507.378C88.0517 507.391 83.659 507.389 79.266 507.376C77.6617 507.374 76.0574 507.376 74.4531 507.385C56.74 507.47 41.4997 503.98 28.2364 491.515C16.4367 479.737 11.6002 465.306 11.4651 448.862C11.4737 447.502 11.4828 446.142 11.4921 444.782C11.4875 443.299 11.4811 441.816 11.4732 440.333C11.4567 436.298 11.4647 432.264 11.4772 428.229C11.4863 423.863 11.4722 419.496 11.4612 415.129C11.4435 406.59 11.4473 398.052 11.4589 389.513C11.4679 382.57 11.4691 375.627 11.4648 368.684C11.4642 367.693 11.4636 366.703 11.4629 365.682C11.4617 363.67 11.4604 361.657 11.459 359.645C11.4477 340.801 11.4607 321.957 11.4823 303.113C11.5001 286.965 11.497 270.817 11.4786 254.668C11.4571 235.889 11.4488 217.11 11.461 198.331C11.4623 196.326 11.4636 194.321 11.4648 192.316C11.4654 191.33 11.466 190.344 11.4667 189.328C11.4701 182.398 11.4643 175.468 11.4549 168.538C11.4436 160.085 11.4468 151.633 11.468 143.181C11.4785 138.873 11.4827 134.566 11.4694 130.258C11.4574 126.307 11.4642 122.355 11.4853 118.404C11.4897 116.983 11.4876 115.562 11.4778 114.141C11.3643 96.2769 16.3627 82.326 28.5938 69.3203C38.5091 59.7591 51.3029 53.8578 65.1673 53.8865C66.3882 53.8865 67.6091 53.8866 68.867 53.8867C70.1755 53.8919 71.4839 53.897 72.8321 53.9023C74.1926 53.9042 75.5531 53.9056 76.9136 53.9066C80.4826 53.9104 84.0516 53.9202 87.6207 53.9313C91.2673 53.9416 94.914 53.9461 98.5606 53.9512C105.707 53.9619 112.854 53.9789 120 54C120.121 53.1326 120.241 52.2652 120.365 51.3716C120.532 50.2203 120.699 49.069 120.871 47.8828C121.114 46.1796 121.114 46.1796 121.361 44.4419C123.677 31.9672 130.68 21.6676 140.813 14.125C149.843 8.25548 159.047 4.90025 169.803 4.83886ZM150 40C141.569 53.0226 145 65.4672 145 82C179.98 82 214.96 82 251 82C253.529 56.996 253.529 56.996 244.75 38.3125C238.465 33.0271 233.15 29.8895 224.82 29.8389C223.544 29.8293 222.269 29.8196 220.955 29.8097C219.56 29.8049 218.165 29.8006 216.77 29.7969C215.336 29.7911 213.902 29.7854 212.468 29.7796C209.459 29.7691 206.451 29.7632 203.442 29.7598C199.603 29.7543 195.765 29.7303 191.927 29.7018C188.962 29.6831 185.998 29.6779 183.034 29.6764C181.62 29.6734 180.206 29.6654 178.792 29.6522C166.839 29.5487 158.275 30.7524 150 40Z" fill="#102851"/>
<path d="M383 241C386.555 242.391 387.713 243.564 389.813 246.75C391.671 251.836 391.636 255.536 389.469 260.527C388.819 261.653 388.169 262.778 387.5 263.937C386.85 265.081 386.201 266.224 385.531 267.402C384.773 268.688 384.773 268.688 384 270C384.33 270.33 384.66 270.66 385 271C385.355 270.527 385.709 270.054 386.074 269.566C394.056 259.653 405.297 251.981 418 250C430.262 249.279 444.61 248.438 455.625 254.812C459.202 258.107 460.722 260.715 461.317 265.598C461.745 276.077 458.372 285.601 454 295C454.739 295.277 455.477 295.554 456.238 295.84C474.531 303.524 485.529 320.457 493 338C505.507 370.419 501.557 406.54 487.895 437.918C475.959 464.415 456.685 489.919 429.375 501.543C418.329 505.673 407.889 507.354 396.125 507.25C395.072 507.248 394.019 507.245 392.935 507.243C386.327 507.176 380.247 506.533 373.762 505.312C370.77 504.974 368.506 505.277 365.563 505.875C343.638 510.324 320.114 506.287 301.063 494.625C272.266 474.25 252.802 439.621 246.5 405.272C241.396 374.543 244.367 342.921 262.777 316.812C275.842 300.281 293.333 290.246 314.188 287.312C328.153 286.134 341.265 287.467 355 290C354.969 289.387 354.938 288.773 354.906 288.141C354.396 276.101 357.312 264.559 363 254C363.733 252.617 363.733 252.617 364.481 251.207C369.091 242.994 373.413 239.745 383 241ZM409.91 281.246C409.28 281.825 408.65 282.404 408 283C407.421 283.527 406.843 284.054 406.246 284.598C404.779 285.937 404.779 285.937 405 288C408.541 288.234 412.079 288.375 415.625 288.5C416.624 288.567 417.623 288.634 418.652 288.703C424.274 288.926 424.274 288.926 429.019 286.289C431.716 282.776 433.717 279.527 434 275C424.435 272.921 417.374 274.974 409.91 281.246ZM285.754 328.785C272.19 345.914 267.316 368.579 269.563 390.062C273.513 420.999 288.335 452.201 313 472C326.452 481.191 342.063 483.466 358 482C360.347 481.55 362.658 481.016 364.98 480.452C367.513 479.885 369.908 479.734 372.5 479.75C373.335 479.745 374.171 479.74 375.031 479.734C377.578 479.962 379.789 480.396 382.262 480.996C386.985 482.094 391.475 482.347 396.313 482.312C397.557 482.304 397.557 482.304 398.827 482.295C415.449 481.969 428.267 475.589 440 464C440.903 463.188 440.903 463.188 441.824 462.359C462.069 443.672 474.16 412.992 475.348 385.883C475.877 363.562 471.671 342.412 455.84 325.723C443.892 314.407 429.628 311.661 413.676 311.773C405.442 312.281 397.163 313.808 389.234 316.078C383.898 317.432 378.54 317.382 373.063 317.375C371.962 317.376 370.862 317.376 369.729 317.377C361.631 317.269 354.39 316.191 346.621 313.973C325.244 308.231 301.28 312.323 285.754 328.785Z" fill="#102851"/>
<path d="M166 163C169.407 165.148 171.778 167.113 173 171C173.654 176.774 172.32 180.392 169 185C165.866 188.549 162.524 191.873 159.16 195.203C158.191 196.172 157.222 197.141 156.254 198.111C154.232 200.133 152.205 202.149 150.174 204.162C147.579 206.735 144.995 209.318 142.414 211.906C140.418 213.905 138.417 215.899 136.415 217.892C134.998 219.303 133.585 220.717 132.172 222.131C131.305 222.989 130.437 223.847 129.543 224.731C128.405 225.862 128.405 225.862 127.245 227.016C123.633 230.208 120.467 232.429 115.562 232.438C114.842 232.457 114.121 232.476 113.379 232.496C107.565 231.284 103.276 226.566 99.2344 222.465C98.7149 221.945 98.1954 221.425 97.6602 220.889C96.5722 219.798 95.4866 218.705 94.4033 217.609C92.746 215.933 91.0807 214.266 89.4141 212.6C88.3537 211.534 87.2938 210.469 86.2344 209.402C85.4906 208.657 85.4906 208.657 84.7319 207.896C80.95 204.062 78.7125 201.609 78.6875 196.125C78.7912 191.936 79.0859 189.206 82 186C86.2159 182.989 89.7175 182.454 94.7148 183.246C99.0794 184.686 101.853 187.767 105 191C105.898 191.887 106.797 192.774 107.723 193.688C110.167 196.108 112.59 198.546 115 201C120.033 196.794 124.707 192.392 129.289 187.703C130.656 186.319 132.023 184.935 133.391 183.551C135.518 181.392 137.643 179.232 139.763 177.066C141.827 174.959 143.901 172.862 145.977 170.766C146.607 170.117 147.237 169.468 147.887 168.799C153.5 163.153 158.083 160.772 166 163Z" fill="#102851"/>
<path d="M165 283C168.622 284.887 170.689 287.068 172 291C172.671 294.866 172.996 298.496 170.761 301.872C169.926 302.768 169.926 302.768 169.075 303.682C168.436 304.373 167.798 305.064 167.14 305.775C166.434 306.51 165.728 307.244 165 308C164.267 308.763 163.535 309.527 162.78 310.313C160.306 312.859 157.809 315.382 155.305 317.898C154.394 318.815 153.484 319.731 152.546 320.675C150.633 322.598 148.718 324.518 146.802 326.438C144.353 328.892 141.914 331.356 139.476 333.822C137.134 336.187 134.781 338.542 132.43 340.898C131.559 341.782 130.688 342.665 129.79 343.575C128.973 344.39 128.155 345.205 127.312 346.044C126.598 346.762 125.884 347.48 125.149 348.219C121.986 350.84 119.108 351.859 115.062 352.375C108.712 351.597 104.19 346.526 99.7969 342.203C99.233 341.651 98.6691 341.098 98.0882 340.529C96.9056 339.365 95.7259 338.199 94.5488 337.029C92.7548 335.255 90.9405 333.503 89.125 331.75C87.9726 330.611 86.8216 329.47 85.6719 328.328C85.1323 327.813 84.5927 327.298 84.0368 326.768C80.1018 322.786 78.8377 319.553 78 314C79.1114 310.078 80.4408 307.661 83.0625 304.563C87.4354 302.236 91.1649 301.923 96 303C99.1706 304.869 101.488 307.333 104 310C105.832 311.814 107.665 313.626 109.5 315.438C111.003 316.956 112.503 318.476 114 320C117.029 318.646 119.1 317.138 121.42 314.775C122.067 314.121 122.715 313.467 123.382 312.793C124.071 312.088 124.759 311.383 125.469 310.656C126.186 309.931 126.903 309.206 127.642 308.46C129.933 306.144 132.217 303.823 134.5 301.5C137.505 298.442 140.516 295.391 143.531 292.344C144.564 291.286 144.564 291.286 145.618 290.207C146.266 289.553 146.913 288.899 147.58 288.225C148.428 287.361 148.428 287.361 149.293 286.48C153.974 282.422 159.031 282.06 165 283Z" fill="#102851"/>
<path d="M228.605 184.564C229.472 184.554 230.339 184.544 231.232 184.534C234.099 184.505 236.965 184.499 239.832 184.496C241.827 184.486 243.823 184.476 245.818 184.466C250.002 184.448 254.185 184.442 258.369 184.444C263.723 184.444 269.075 184.403 274.429 184.352C278.551 184.318 282.673 184.312 286.795 184.314C288.768 184.31 290.741 184.297 292.714 184.274C295.48 184.244 298.242 184.253 301.007 184.271C302.222 184.246 302.222 184.246 303.462 184.22C308.895 184.31 311.707 185.736 315.687 189.42C318.578 192.899 318.365 196.69 318 201C315.512 205.975 313.109 207.957 308 210C305.098 210.28 302.416 210.411 299.519 210.388C298.274 210.396 298.274 210.396 297.004 210.404C294.273 210.417 291.543 210.409 288.812 210.398C286.907 210.4 285.002 210.403 283.097 210.407C279.109 210.412 275.122 210.405 271.134 210.391C266.029 210.374 260.925 210.384 255.821 210.402C251.888 210.413 247.956 210.409 244.023 210.401C242.141 210.399 240.26 210.402 238.378 210.409C235.745 210.417 233.113 210.405 230.48 210.388C229.707 210.394 228.934 210.4 228.138 210.407C222.521 210.341 218.403 209.154 214.187 205.375C212.342 201.684 211.757 198.118 212 194C215.938 186.124 220.147 184.55 228.605 184.564Z" fill="#102851"/>
</svg>
