<svg width="512" height="512" viewBox="0 0 512 512" fill="none" xmlns="http://www.w3.org/2000/svg">
<g clip-path="url(#clip0_2031_591)">
<path d="M251 50C251.998 50.9319 251.998 50.9319 253.016 51.8828C255.001 53.296 255.001 53.296 257.477 52.4101C260.072 50.9596 262.132 49.3859 264.375 47.4375C296.351 21.2884 338.185 13.6355 378.43 17.3134C418.801 22.3284 454.835 45.606 480.144 76.9152C494.038 94.8021 503.479 115.102 509 137C509.179 137.685 509.359 138.37 509.544 139.075C512.298 150.076 512.306 161.289 512.375 172.562C512.387 173.664 512.387 173.664 512.399 174.788C512.659 206.064 502.515 238.342 483 263C482.422 263.749 481.844 264.499 481.249 265.271C475.048 273.119 468.14 280.135 461.041 287.165C459.036 289.151 457.04 291.145 455.045 293.141C453.771 294.409 452.497 295.678 451.223 296.945C450.627 297.54 450.031 298.135 449.417 298.747C444.222 303.882 444.222 303.882 439.75 304.312C435.366 303.947 433.384 302.74 430 300C428.203 296.405 428.324 292.908 429 289C430.185 287.163 430.185 287.163 431.828 285.387C432.465 284.697 433.102 284.008 433.758 283.298C437.198 279.772 440.707 276.318 444.236 272.881C453.779 263.581 462.926 254.374 470 243C470.393 242.382 470.786 241.763 471.191 241.126C489.044 212.643 495.221 176.517 487.766 143.653C487.214 141.423 486.62 139.211 486 137C485.818 136.33 485.636 135.66 485.449 134.97C475.94 100.887 450.647 71.4967 420.145 54.1679C391.686 38.8079 355.669 33.5271 324.289 42.3154C305.808 47.8434 288.995 55.7786 274 68C275.519 71.8394 277.778 73.6749 281 76.1875C284.776 79.1911 288.441 82.2429 292 85.5C295.32 88.5228 298.698 91.4251 302.188 94.25C307.323 98.4076 312.323 102.703 317.294 107.055C320.357 109.732 323.434 112.374 326.602 114.926C337.198 123.492 345.646 132.865 347.223 146.999C348.211 160.451 345.779 171.627 337.324 182.457C329.308 191.228 319.526 196.554 307.625 197.375C288.244 198.152 276.778 189.574 262.612 177.378C255.584 171.37 248.333 165.631 241 160C236.885 163.212 233.499 166.595 230.117 170.562C227.476 173.603 224.742 176.55 222 179.5C218.788 182.962 215.589 186.426 212.5 190C208.943 194.112 205.244 198.088 201.55 202.075C196.984 207.007 192.483 211.993 188 217C182.731 222.876 177.43 228.721 172.091 234.534C167.693 239.326 163.342 244.158 159 249C153.729 254.877 148.428 260.725 143.087 266.539C139.47 270.478 135.891 274.449 132.32 278.43C129.689 281.344 127.034 284.235 124.375 287.125C121.398 290.362 118.441 293.611 115.563 296.937C112.488 300.484 109.314 303.932 106.125 307.375C88.3127 323.966 88.3127 323.966 80.6954 345.402C81.2849 350.428 82.957 354.218 86.8009 357.57C91.639 360.858 96.2168 362.658 102.156 361.625C110.794 359.259 116.208 353.118 121.828 346.492C124.762 343.125 127.819 339.88 130.875 336.625C135.551 331.637 140.177 326.613 144.734 321.516C147.93 317.967 151.174 314.464 154.416 310.959C157.807 307.293 161.19 303.62 164.563 299.937C165.012 299.446 165.462 298.955 165.925 298.45C166.831 297.461 167.736 296.472 168.641 295.484C170.468 293.489 172.296 291.495 174.124 289.501C175.038 288.504 175.952 287.506 176.867 286.508C179.205 283.956 181.546 281.406 183.891 278.859C184.844 277.823 185.797 276.787 186.75 275.75C187.208 275.253 187.665 274.755 188.137 274.243C191.386 270.699 194.553 267.095 197.66 263.426C200.106 260.823 202.368 260.733 205.813 260.562C208.572 260.598 210.389 260.634 212.77 262.059C215.341 264.793 216.041 267.232 216.688 270.875C216.182 278.247 209.752 283.407 204.758 288.25C203.061 289.939 201.496 291.683 199.938 293.5C196.439 297.559 192.79 301.466 189.125 305.375C184.449 310.363 179.823 315.387 175.266 320.484C172.07 324.033 168.826 327.536 165.584 331.041C162.193 334.707 158.811 338.38 155.438 342.062C154.988 342.553 154.538 343.044 154.075 343.55C153.169 344.539 152.264 345.527 151.359 346.516C149.532 348.511 147.704 350.505 145.876 352.499C144.963 353.495 144.05 354.492 143.138 355.489C140.783 358.062 138.419 360.626 136.039 363.176C125.216 374.217 125.216 374.217 121.77 388.715C122.093 391.924 123.366 394.254 125 397C125.495 398.485 125.495 398.485 126 400C127.782 401.142 127.782 401.142 130 402C130.701 402.371 131.403 402.742 132.125 403.125C136.953 404.594 142.137 405.347 146.835 403.137C152.374 399.92 156.482 395.721 160.75 391C161.793 389.869 161.793 389.869 162.857 388.715C164.913 386.484 166.957 384.242 169 382C170.544 380.324 172.09 378.651 173.638 376.978C175.075 375.424 176.508 373.866 177.942 372.309C181.438 368.517 184.969 364.759 188.5 361C193.022 356.186 197.528 351.36 202 346.5C207.058 341.005 212.158 335.55 217.271 330.106C220.484 326.685 223.693 323.26 226.891 319.824C227.832 318.814 227.832 318.814 228.792 317.783C229.977 316.509 231.162 315.235 232.345 313.959C233.89 312.3 235.445 310.65 237 309C238.313 307.585 238.313 307.585 239.652 306.141C242.562 303.488 244.201 303.056 248.004 302.797C251.457 303.148 253.455 304.757 256 307C258.353 310.208 258.469 313.096 258 317C255.656 321.406 252.492 324.634 248.941 328.061C247.107 329.894 245.408 331.78 243.719 333.746C240.18 337.821 236.52 341.765 232.813 345.687C231.489 347.093 230.166 348.5 228.844 349.906C228.194 350.597 227.544 351.288 226.875 352C224.173 354.882 221.49 357.782 218.813 360.687C218.328 361.213 217.844 361.739 217.345 362.28C215.896 363.853 214.448 365.427 213 367C206.669 373.876 200.32 380.734 193.938 387.562C192.182 389.444 190.426 391.326 188.671 393.208C187.589 394.368 186.507 395.528 185.423 396.686C173.413 408.311 173.413 408.311 167.688 423.25C168.168 429.017 170.288 433.086 174.125 437.375C178.799 440.017 183.787 441.501 189.18 440.66C196.736 438.176 201.776 432.43 206.785 426.535C209.775 423.113 212.889 419.812 216 416.5C221.334 410.826 221.334 410.826 226.5 405C230.442 400.418 234.607 396.045 238.74 391.635C242.812 387.285 246.829 382.891 250.801 378.449C253.307 375.658 255.838 372.889 258.375 370.125C258.832 369.627 259.288 369.129 259.759 368.616C262.17 365.989 264.585 363.366 267.004 360.746C267.495 360.213 267.987 359.68 268.493 359.13C269.857 357.65 271.224 356.17 272.59 354.691C274.18 352.916 275.721 351.097 277.207 349.234C279.14 346.826 280.066 345.896 283 345C289.961 344.337 289.961 344.337 293.938 346.875C296.765 349.788 296.966 350.594 297.313 354.75C297.188 361.681 292.514 365.632 287.828 370.18C286.107 371.894 284.518 373.656 282.938 375.5C279.439 379.559 275.79 383.466 272.125 387.375C267.428 392.386 262.778 397.431 258.199 402.551C254.304 406.889 250.352 411.174 246.407 415.468C245.018 416.98 243.63 418.494 242.242 420.008C241.789 420.502 241.336 420.996 240.869 421.505C239.958 422.5 239.048 423.495 238.139 424.491C235.791 427.059 233.429 429.611 231.039 432.141C221.186 442.213 221.186 442.213 216.688 455.187C217.187 461.276 219.415 465.916 224.063 469.937C227.854 472.6 230.648 473.208 235.188 473.375C236.089 473.424 236.99 473.473 237.918 473.523C247.509 471.895 254.337 463.057 260.86 456.448C262.037 455.268 263.214 454.088 264.391 452.909C266.914 450.38 269.433 447.846 271.947 445.309C275.923 441.297 279.91 437.296 283.899 433.297C291.639 425.532 299.368 417.757 307.095 409.98C316.945 400.07 326.801 390.165 336.665 380.269C340.63 376.291 344.589 372.308 348.544 368.321C351.001 365.845 353.463 363.373 355.926 360.903C357.068 359.756 358.208 358.607 359.346 357.456C360.898 355.887 362.457 354.324 364.017 352.762C364.888 351.886 365.759 351.009 366.656 350.106C369.927 347.167 372.019 346.127 376.375 345.562C381.12 346.135 382.866 347.418 386 351C386.983 353.722 387.397 356.127 387 359C384.881 363.04 382.247 366.009 379.037 369.23C378.539 369.733 378.042 370.235 377.529 370.753C375.866 372.428 374.197 374.095 372.527 375.763C371.331 376.966 370.135 378.169 368.939 379.372C365.694 382.635 362.442 385.892 359.188 389.147C357.153 391.183 355.12 393.221 353.086 395.259C345.987 402.377 338.882 409.491 331.772 416.599C325.157 423.212 318.553 429.837 311.955 436.467C306.281 442.168 300.598 447.861 294.91 453.548C291.517 456.94 288.127 460.336 284.745 463.739C281.56 466.944 278.366 470.138 275.164 473.325C273.995 474.492 272.83 475.661 271.669 476.835C261.795 486.806 252.237 495.084 237.543 495.381C224.218 495.347 214.733 492.665 205 483C200.002 476.862 195.753 470.085 196 462C194.693 462.16 194.693 462.16 193.359 462.324C179.487 463.72 168.959 461.139 158 452.406C151.511 446.476 147.87 438.499 146 430C146 428.68 146 427.36 146 426C145.117 426.046 144.234 426.093 143.324 426.141C131.246 426.504 121.336 423.942 112 416C104.808 408.452 99.7986 399.312 99.9376 388.75C99.9466 387.858 99.9557 386.966 99.965 386.047C99.9766 385.371 99.9882 384.696 100 384C99.4059 383.974 98.8116 383.948 98.1993 383.922C85.9118 383.081 76.6006 378.796 68.0275 369.969C60.2861 360.896 58.0984 350.538 58.6173 338.84C59.5334 329.651 63.1157 322.954 69.0001 316C69.7839 315.01 70.5676 314.02 71.3751 313C71.9114 312.34 72.4476 311.68 73.0001 311C71.6262 307.905 70.0646 305.834 67.6429 303.479C66.9578 302.807 66.2728 302.135 65.5669 301.443C64.8243 300.723 64.0816 300.003 63.3165 299.262C61.7322 297.703 60.1483 296.143 58.5646 294.584C56.0808 292.149 53.5939 289.718 51.1009 287.293C30.4674 267.185 14.2974 244.972 5.75011 217.125C5.51599 216.372 5.28186 215.619 5.04064 214.843C0.959695 200.851 -0.533663 187.073 -0.374888 172.562C-0.370235 171.799 -0.365583 171.035 -0.360789 170.248C-0.280165 158.936 0.144285 147.99 3.00011 137C3.18815 136.233 3.3762 135.467 3.56994 134.677C13.4278 95.3237 39.1822 61.7794 73.1251 39.9375C92.4205 28.4576 112.771 21.0835 135 18C136.404 17.8027 136.404 17.8027 137.836 17.6015C178.329 12.9916 219.172 24.7603 251 50ZM53.0001 85C27.4675 114.942 19.2154 149.271 21.0001 188C23.2182 212.151 34.0065 236.858 50.0001 255C50.6034 255.691 51.2067 256.383 51.8282 257.095C58.2751 264.375 65.0847 271.271 71.9593 278.144C73.9634 280.151 75.9594 282.165 77.9552 284.18C79.2288 285.456 80.5029 286.732 81.7775 288.008C82.3732 288.611 82.969 289.214 83.5829 289.835C86.2838 292.955 86.2838 292.955 90.0001 294C91.4007 292.654 91.4007 292.654 92.8751 290.812C96.1193 286.994 99.4653 283.295 102.875 279.625C107.196 274.964 111.474 270.269 115.715 265.535C118.333 262.631 120.978 259.752 123.625 256.875C126.602 253.638 129.56 250.389 132.438 247.062C136.018 242.932 139.736 238.934 143.45 234.925C148.016 229.993 152.518 225.007 157 220C162.27 214.122 167.572 208.275 172.914 202.461C176.53 198.522 180.109 194.551 183.68 190.57C186.311 187.656 188.967 184.765 191.625 181.875C194.602 178.638 197.56 175.389 200.438 172.062C204.017 167.933 207.735 163.936 211.448 159.927C216.791 154.155 222.079 148.335 227.262 142.418C227.98 141.599 228.698 140.781 229.438 139.937C230.076 139.204 230.714 138.471 231.371 137.715C233.779 135.18 235.66 134.74 239.063 134.5C245.31 134.609 248.529 137.982 253 142C254.562 143.331 256.133 144.65 257.704 145.969C259.389 147.387 261.066 148.814 262.742 150.242C266.506 153.44 270.334 156.556 274.172 159.664C276.253 161.383 278.298 163.121 280.328 164.898C280.897 165.393 281.466 165.887 282.053 166.396C283.149 167.351 284.239 168.313 285.322 169.283C291.786 174.892 297.692 176.601 306.07 176.34C313.562 175.471 317.775 171.689 322.555 166.098C326.496 160.377 326.733 154.748 326 148C323.222 137.614 312.71 130.624 304.754 124.25C302.091 122.074 299.54 119.818 297 117.5C293.68 114.477 290.302 111.575 286.813 108.75C281.041 104.076 275.444 99.217 269.844 94.3398C265.562 90.6112 261.241 86.9278 256.921 83.2434C253.536 80.3463 250.218 77.391 246.938 74.375C219.987 50.0972 185.788 36.1242 149.203 37.852C111.383 40.3918 78.411 57.019 53.0001 85Z" fill="#F24822"/>
<path d="M412 315C414.87 316.794 416.491 317.983 418 321C418.581 328.09 418.581 328.09 416.125 331.937C412.638 335.322 409.964 335.39 405.262 335.359C401.675 334.789 400.131 332.798 398 330C396.567 327.134 396.693 325.187 397 322C400.938 315.042 404.285 314.001 412 315Z" fill="#F24822"/>
</g>
<defs>
<clipPath id="clip0_2031_591">
<rect width="512" height="512" fill="white"/>
</clipPath>
</defs>
</svg>
