<svg width="21" height="21" viewBox="0 0 21 21" fill="none" xmlns="http://www.w3.org/2000/svg">
<path d="M5.95601 0.5H14.356C17.556 0.5 20.156 3.1 20.156 6.3V14.7C20.156 16.2383 19.5449 17.7135 18.4572 18.8012C17.3695 19.8889 15.8943 20.5 14.356 20.5H5.95601C2.75601 20.5 0.156006 17.9 0.156006 14.7V6.3C0.156006 4.76174 0.767076 3.28649 1.85479 2.19878C2.9425 1.11107 4.41775 0.5 5.95601 0.5ZM5.75601 2.5C4.80123 2.5 3.88555 2.87928 3.21042 3.55442C2.53529 4.22955 2.15601 5.14522 2.15601 6.1V14.9C2.15601 16.89 3.76601 18.5 5.75601 18.5H14.556C15.5108 18.5 16.4265 18.1207 17.1016 17.4456C17.7767 16.7705 18.156 15.8548 18.156 14.9V6.1C18.156 4.11 16.546 2.5 14.556 2.5H5.75601ZM15.406 4C15.7375 4 16.0555 4.1317 16.2899 4.36612C16.5243 4.60054 16.656 4.91848 16.656 5.25C16.656 5.58152 16.5243 5.89946 16.2899 6.13388C16.0555 6.3683 15.7375 6.5 15.406 6.5C15.0745 6.5 14.7565 6.3683 14.5221 6.13388C14.2877 5.89946 14.156 5.58152 14.156 5.25C14.156 4.91848 14.2877 4.60054 14.5221 4.36612C14.7565 4.1317 15.0745 4 15.406 4ZM10.156 5.5C11.4821 5.5 12.7539 6.02678 13.6915 6.96447C14.6292 7.90215 15.156 9.17392 15.156 10.5C15.156 11.8261 14.6292 13.0979 13.6915 14.0355C12.7539 14.9732 11.4821 15.5 10.156 15.5C8.82992 15.5 7.55815 14.9732 6.62047 14.0355C5.68279 13.0979 5.15601 11.8261 5.15601 10.5C5.15601 9.17392 5.68279 7.90215 6.62047 6.96447C7.55815 6.02678 8.82992 5.5 10.156 5.5ZM10.156 7.5C9.36036 7.5 8.59729 7.81607 8.03469 8.37868C7.47208 8.94129 7.15601 9.70435 7.15601 10.5C7.15601 11.2956 7.47208 12.0587 8.03469 12.6213C8.59729 13.1839 9.36036 13.5 10.156 13.5C10.9517 13.5 11.7147 13.1839 12.2773 12.6213C12.8399 12.0587 13.156 11.2956 13.156 10.5C13.156 9.70435 12.8399 8.94129 12.2773 8.37868C11.7147 7.81607 10.9517 7.5 10.156 7.5Z" fill="#1E1E1E"/>
</svg>
