<svg width="512" height="512" viewBox="0 0 512 512" fill="none" xmlns="http://www.w3.org/2000/svg">
<g clip-path="url(#clip0_2032_599)">
<path d="M255.625 -0.312488C256.643 -0.310333 257.661 -0.308178 258.709 -0.305957C273.319 -0.256286 287.651 -0.00538969 302 3.00001C302.975 3.19869 303.95 3.39737 304.954 3.60206C364.52 16.0621 420.874 47.9524 458 97C458.415 97.5388 458.83 98.0777 459.258 98.6328C483.759 130.503 500.251 167.056 508.312 206.438C508.46 207.156 508.607 207.875 508.759 208.616C511.733 224.262 512.373 239.736 512.312 255.625C512.31 256.643 512.308 257.661 512.306 258.71C512.256 273.319 512.005 287.651 509 302C508.702 303.462 508.702 303.462 508.398 304.954C498.146 353.962 475.807 397.966 441 434C440.401 434.621 439.802 435.242 439.185 435.881C431.521 443.783 423.78 451.328 415 458C414.46 458.417 413.919 458.833 413.363 459.263C381.494 483.761 344.942 500.252 305.562 508.312C304.843 508.46 304.125 508.607 303.384 508.759C288.708 511.548 274.183 512.349 259.273 512.316C256.333 512.313 253.394 512.336 250.455 512.361C237.082 512.406 224.186 511.201 211 509C209.294 508.718 209.294 508.718 207.554 508.43C204.959 507.964 202.387 507.445 199.812 506.875C198.423 506.568 198.423 506.568 197.006 506.255C151.912 495.769 111.223 473.034 77.9999 441C77.036 440.077 77.036 440.077 76.0526 439.135C66.8765 430.309 58.5267 421.269 50.9999 411C50.3628 410.146 50.3628 410.146 49.7128 409.275C43.1972 400.534 37.364 391.489 31.9999 382C31.5977 381.293 31.1955 380.586 30.7811 379.857C17.7557 356.722 9.00688 331.55 3.68739 305.562C3.54003 304.844 3.39268 304.125 3.24086 303.384C0.266999 287.738 -0.373114 272.264 -0.31261 256.375C-0.310455 255.357 -0.3083 254.339 -0.306079 253.29C-0.256409 238.681 -0.00551176 224.349 2.99989 210C3.19857 209.025 3.39724 208.05 3.60194 207.046C13.7226 158.664 35.6391 114.676 69.9999 79C70.632 78.3407 71.2641 77.6813 71.9154 77.002C81.0599 67.5137 90.3572 58.7738 101 51C102.151 50.1419 103.302 49.2839 104.453 48.4258C112.643 42.3882 121.145 37.0054 130 32C130.707 31.5978 131.414 31.1956 132.143 30.7813C155.278 17.7558 180.45 9.007 206.437 3.68751C207.156 3.54016 207.875 3.3928 208.616 3.24098C224.262 0.267121 239.736 -0.372992 255.625 -0.312488ZM122 122C116.711 130.314 114.681 138.78 116.461 148.523C118.974 158.134 124.499 164.928 133 170C141.356 174.519 153.034 174.462 162.109 172.238C164.533 171.309 166.741 170.273 169 169C170.072 168.402 171.145 167.804 172.25 167.188C179.659 161.294 184.14 154.394 185.418 144.891C185.862 134.855 183.207 126.109 176.437 118.563C167.552 110.666 157.771 109.044 146.281 109.59C136.23 110.381 128.561 114.293 122 122ZM308 200C307.056 200.401 306.113 200.802 305.141 201.215C295.153 206.082 285.696 214.438 280 224C280 224.66 280 225.32 280 226C279.34 226 278.68 226 278 226C278 217.42 278 208.84 278 200C257.87 200 237.74 200 217 200C217 261.71 217 323.42 217 387C237.13 387 257.26 387 278 387C278.037 378.887 278.075 370.773 278.113 362.414C278.143 357.264 278.175 352.115 278.209 346.965C278.263 338.797 278.315 330.629 278.346 322.46C278.372 315.873 278.413 309.285 278.463 302.698C278.48 300.188 278.491 297.679 278.497 295.17C278.507 291.646 278.535 288.123 278.568 284.6C278.566 283.57 278.565 282.54 278.563 281.479C278.712 269.926 281.666 261.707 289.594 253.313C296.293 246.993 303.436 244.773 312.562 244.563C320.39 244.799 327.614 245.771 333.59 251.297C343.671 263.473 344.113 278.605 344.205 293.682C344.215 294.698 344.225 295.714 344.235 296.76C344.267 300.082 344.291 303.404 344.316 306.727C344.337 309.044 344.358 311.361 344.379 313.679C344.434 319.752 344.484 325.824 344.532 331.897C344.591 339.198 344.657 346.498 344.722 353.799C344.82 364.866 344.909 375.933 345 387C365.13 387 385.26 387 406 387C406.09 365.505 406.09 365.505 406.151 344.01C406.167 336.315 406.188 328.619 406.226 320.924C406.26 314.168 406.277 307.411 406.285 300.655C406.29 298.093 406.301 295.53 406.317 292.968C406.49 264.639 404.837 235.917 384.327 214.113C371.892 201.576 355.314 195.868 337.942 195.62C327.31 195.638 317.917 195.771 308 200ZM120 200C120 261.71 120 323.42 120 387C140.13 387 160.26 387 181 387C181 325.29 181 263.58 181 200C160.87 200 140.74 200 120 200Z" fill="black"/>
</g>
<defs>
<clipPath id="clip0_2032_599">
<rect width="512" height="512" fill="white"/>
</clipPath>
</defs>
</svg>
