<svg width="512" height="512" viewBox="0 0 512 512" fill="none" xmlns="http://www.w3.org/2000/svg">
<g clip-path="url(#clip0_2031_582)">
<path d="M100.313 5.5C104.497 6.06742 105.245 7.01721 107.748 10.2388C109.797 13.1207 111.593 16.0997 113.313 19.1875C113.696 19.8767 114.08 20.566 114.476 21.2761C145.101 77.586 143.062 144.447 125.864 204.666C120.557 222.579 113.966 239.879 106.029 256.785C104.303 260.501 102.652 264.25 101 268C106.658 269.372 112.327 270.691 118 272C119.698 272.394 119.698 272.394 121.43 272.796C151.393 279.702 181.343 284.475 212 287C213.599 287.144 213.599 287.144 215.229 287.29C228.357 288.339 241.526 288.244 254.688 288.25C255.977 288.251 257.266 288.251 258.595 288.252C279.555 288.235 300.194 287.528 321 285C321.7 284.917 322.399 284.835 323.12 284.75C352.117 281.33 380.858 275.801 409 268C409 264.617 408.254 263.094 406.797 260.066C376.423 195.333 360.672 117.085 385.082 47.8635C396.669 16.3312 396.669 16.3312 407 6C413.267 5.53578 413.267 5.53578 415.875 7.1875C417.316 9.50965 417.706 11.2797 418 14C417.139 16.2698 417.139 16.2698 415.754 18.5977C415.25 19.4714 414.746 20.3451 414.227 21.2454C413.678 22.175 413.128 23.1047 412.563 24.0625C382.993 76.1863 383.034 136.842 398.191 193.625C407.382 226.641 420.872 257.157 437.215 287.236C453.501 317.295 458.444 350.599 458.375 384.375C458.375 385.347 458.375 386.319 458.374 387.321C458.333 406.43 456.803 425.109 454 444C453.813 445.277 453.626 446.554 453.433 447.87C451.314 461.908 448.514 475.785 445.375 489.625C445.229 490.282 445.083 490.938 444.932 491.615C444.517 493.467 444.083 495.316 443.649 497.164C443.403 498.221 443.157 499.277 442.904 500.366C441.927 503.214 441.387 504.221 439 506C436.284 506.376 436.284 506.376 432.923 506.378C431.644 506.385 430.365 506.393 429.047 506.401C427.62 506.395 426.192 506.388 424.765 506.381C423.255 506.384 421.744 506.389 420.234 506.395C416.074 506.408 411.914 506.401 407.753 506.392C403.27 506.385 398.788 506.396 394.305 506.404C385.519 506.417 376.734 506.415 367.948 506.406C360.81 506.399 353.672 506.398 346.534 506.401C345.012 506.402 345.012 506.402 343.459 506.403C341.399 506.404 339.338 506.405 337.277 506.406C317.937 506.414 298.597 506.404 279.257 506.388C262.649 506.375 246.042 506.377 229.434 506.391C210.165 506.407 190.896 506.413 171.626 506.404C169.573 506.403 167.52 506.402 165.467 506.401C164.456 506.401 163.446 506.401 162.405 506.4C155.272 506.397 148.14 506.402 141.007 506.409C132.319 506.417 123.632 506.415 114.944 506.399C110.508 506.391 106.073 506.388 101.637 506.398C97.5805 506.407 93.5245 506.402 89.4682 506.386C87.9966 506.383 86.5248 506.384 85.0532 506.392C83.0611 506.401 81.0689 506.39 79.0768 506.378C77.4132 506.377 77.4132 506.377 75.716 506.376C73.0001 506 73.0001 506 71.1701 504.608C69.6942 502.579 69.192 500.839 68.6056 498.398C68.2601 496.976 68.2601 496.976 67.9076 495.525C67.67 494.486 67.4324 493.446 67.1876 492.375C66.9326 491.282 66.6776 490.189 66.4149 489.063C61.3128 466.648 57.2506 443.883 55.0001 421C54.9058 420.079 54.8116 419.159 54.7144 418.21C53.751 407.554 53.7566 396.879 53.7501 386.188C53.7494 385.186 53.7487 384.185 53.748 383.153C53.764 368.242 54.0947 353.676 57.0001 339C57.177 338.1 57.3539 337.201 57.5362 336.274C61.8873 314.958 69.4597 295.216 80.3126 276.375C116.803 212.78 135.734 134.539 116.344 62.5659C112.062 47.5547 105.655 32.5175 96.8126 19.625C94.7366 16.5597 93.5277 14.68 93.9376 10.9375C95.3924 6.91527 96.0361 6.14551 100.313 5.5ZM69.0001 355C58.6598 394.6 69.3275 454.982 82.0001 493C137.11 493 192.22 493 249 493C249 465.94 249 438.88 249 411C243.72 409.68 238.44 408.36 233 407C229.826 405.617 227.066 404.342 224.125 402.625C223.412 402.23 222.699 401.835 221.965 401.428C218.253 399.355 214.616 397.174 211 394.938C174.365 372.848 128.275 365.175 86.8009 357.531C86.043 357.39 85.2851 357.249 84.5042 357.103C79.3513 356.17 74.2099 355.533 69.0001 355ZM290.27 401.402C281.885 407.304 273.099 408.836 263 411C263 438.06 263 465.12 263 493C318.11 493 373.22 493 430 493C432.621 483.173 435.079 473.522 437 463.562C437.126 462.913 437.252 462.264 437.382 461.595C442.106 437.057 445.202 412.101 445.13 387.097C445.125 384.871 445.13 382.644 445.137 380.418C445.14 372.567 444.923 364.807 444 357C397.917 357 327.608 373.478 290.27 401.402Z" fill="#50BDC5"/>
<path d="M149.937 47.3711C150.958 47.404 150.958 47.404 152 47.4375C152.681 47.4362 153.361 47.4349 154.062 47.4336C156.851 48.2488 157.502 49.5367 159 52C159.568 54.8713 159.568 54.8713 159.844 58.2227C159.954 59.4705 160.064 60.7184 160.178 62.0042C160.285 63.3569 160.393 64.7097 160.5 66.0625C160.681 68.1627 160.867 70.2623 161.053 72.362C161.18 73.7934 161.305 75.2248 161.429 76.6564C162.131 84.7017 163.057 92.7201 163.998 100.74C165.503 113.838 166.237 126.881 166.25 140.062C166.251 140.78 166.252 141.497 166.253 142.236C166.235 161.778 165.85 190.15 151 205C144.995 205.546 144.995 205.546 142.062 203.938C140.299 200.722 140.537 198.642 141 195C141.701 193.517 142.457 192.061 143.25 190.625C145.752 185.99 147.078 181.472 148.25 176.375C148.494 175.319 148.494 175.319 148.743 174.241C150.403 166.691 151.157 159.275 151.203 151.559C151.213 150.369 151.213 150.369 151.224 149.156C151.241 146.583 151.247 144.01 151.25 141.438C151.252 140.555 151.253 139.673 151.255 138.763C151.257 119.07 149.439 99.8346 146.875 80.3125C146.1 74.322 145.573 68.339 145.187 62.3125C145.122 61.4615 145.057 60.6105 144.99 59.7336C144.782 55.9647 144.799 53.4935 146.238 49.9531C148 48 148 48 149.937 47.3711Z" fill="#50BDC5"/>
<path d="M356.973 47.4062C358.99 47.4967 360.997 47.7457 363 48C368.171 55.7563 364.502 69.3679 363.563 78.1875C361.808 94.889 360.788 111.455 360.813 128.25C360.814 129.387 360.814 129.387 360.815 130.546C360.859 151.053 360.973 172.506 371.016 190.949C372.38 193.791 372.602 195.916 372 199C370.466 201.341 369.201 201.915 366.625 203C364 203 364 203 361.5 201.188C345.553 182.841 346.772 151.409 346.75 128.562C346.749 127.652 346.747 126.742 346.745 125.805C346.744 112.443 347.243 99.1887 348.375 85.875C348.438 85.1317 348.501 84.3884 348.567 83.6226C348.931 79.4331 349.336 75.2494 349.781 71.0677C349.932 69.6455 350.078 68.2226 350.219 66.7994C350.438 64.6173 350.674 62.4377 350.914 60.2578C351.05 58.9831 351.187 57.7084 351.327 56.395C352.08 52.5965 352.936 48.6214 356.973 47.4062Z" fill="#50BDC5"/>
<path d="M264.125 183.438C270.321 186.853 273.773 193.485 276 200C277.843 210.323 277.349 220.653 271.25 229.5C267.631 233.758 264.191 236.452 258.613 237.41C252.208 237.793 247.796 236.252 243 232C236.404 224.783 235.133 216.539 235 207C235.532 198.981 238.581 191.036 244.621 185.52C250.651 181.354 257.414 180.604 264.125 183.438Z" fill="#50BDC5"/>
<path d="M30 143C33.1589 147.006 33.7411 151.122 34.1875 156.063C34.3048 157.325 34.3048 157.325 34.4246 158.612C36.2507 181.561 36.21 205.337 32 228C31.8661 228.724 31.7322 229.447 31.5942 230.193C28.6918 244.874 22.1247 258.822 11 269C8.2013 270.399 6.09501 270.253 3 270C1.125 268.938 1.125 268.938 0 267C-0.625 263.813 -0.625 263.813 0 260C1.55517 257.822 3.29138 255.953 5.12891 254.008C19.3781 238.717 20.5512 212.832 21 193C21.0197 192.15 21.0395 191.299 21.0598 190.423C21.1297 184.519 20.8904 178.672 20.457 172.785C20.4056 172.075 20.3543 171.364 20.3013 170.632C20.0866 167.693 19.8693 164.754 19.6282 161.817C19.4519 159.641 19.2965 157.463 19.1445 155.285C19.045 154.005 18.9455 152.725 18.843 151.407C19.0158 147.658 19.7211 145.939 22 143C24.9958 141.502 26.8319 142.095 30 143Z" fill="#50BDC5"/>
<path d="M70 143C72.6501 144.848 73.0044 146.02 73.7195 149.229C73.8864 150.583 74.0345 151.939 74.168 153.297C74.2474 154.041 74.3267 154.785 74.4085 155.552C75.2693 164.47 75.3361 173.402 75.3157 182.355C75.3125 185.233 75.3361 188.11 75.3614 190.988C75.4507 217.058 72.6463 246.191 54.0508 266.039C51.3804 268.592 49.7257 269.924 46 270.312C43 270 43 270 41.125 268.937C39.7974 266.651 39.2205 264.723 39.3203 262.066C40.2791 259.152 42.0007 257.574 44.125 255.375C62.6864 235.969 61.5524 201.812 61.0796 176.78C60.9418 171.967 60.6027 167.18 60.2422 162.379C59.9762 158.668 59.7536 154.968 59.625 151.25C59.576 150.121 59.5271 148.992 59.4766 147.828C60 145 60 145 62.3594 143.102C65.5018 141.791 66.8285 141.832 70 143Z" fill="#50BDC5"/>
<path d="M491 144C493.421 147.406 493.099 150.263 492.758 154.32C492.661 155.569 492.564 156.817 492.464 158.104C492.408 158.76 492.353 159.417 492.295 160.093C492.009 163.51 491.767 166.931 491.524 170.352C491.451 171.359 491.451 171.359 491.377 172.387C489.501 198.964 489.615 233.612 507.352 255.16C508.948 257.006 508.948 257.006 510.688 258.527C512 260 512 260 512.375 263.5C512 267 512 267 510.875 268.938C507.884 270.633 506.414 270.644 503 270C490.751 262.456 484.549 246.959 481.331 233.573C481.16 232.827 480.989 232.081 480.813 231.313C480.658 230.643 480.503 229.974 480.343 229.285C477.448 215.668 476.668 201.979 476.739 188.099C476.75 185.633 476.739 183.169 476.727 180.703C476.718 172.274 477.031 163.917 477.828 155.523C477.897 154.727 477.967 153.93 478.038 153.109C478.481 148.966 478.906 145.932 482 143C485.828 141.724 487.367 142.377 491 144Z" fill="#50BDC5"/>
<path d="M451 144C453.895 149.79 452.056 158.824 451.5 165.125C449.303 193.658 448.582 228.079 465 253C466.813 255.017 468.669 256.775 470.711 258.551C472 260 472 260 472.625 263.75C472 267 472 267 470.938 268.937C467.547 270.797 465.834 270.742 462 270C446.576 258.573 441.679 238.705 438.543 220.746C437.433 213.087 436.842 205.616 436.832 197.875C436.829 196.929 436.825 195.983 436.822 195.009C436.817 193.016 436.815 191.022 436.815 189.029C436.813 186.036 436.794 183.043 436.775 180.051C436.748 171.081 436.864 162.175 437.824 153.25C437.894 152.553 437.963 151.856 438.034 151.137C438.379 148.382 438.727 146.372 440.386 144.109C444.373 141.369 446.767 142.252 451 144Z" fill="#50BDC5"/>
</g>
<defs>
<clipPath id="clip0_2031_582">
<rect width="512" height="512" fill="white"/>
</clipPath>
</defs>
</svg>
