<svg width="512" height="512" viewBox="0 0 512 512" fill="none" xmlns="http://www.w3.org/2000/svg">
<g clip-path="url(#clip0_2031_594)">
<path d="M356.125 -0.24999C357.12 -0.270615 358.115 -0.29124 359.141 -0.31249C369.272 -0.365394 378.386 1.45858 385.813 8.78907C392.594 16.1076 395.364 23.5544 395.215 33.5391C394.23 44.8271 388.74 53.1322 380.274 60.3047C373.711 65.1986 366.107 66.7888 358 66C345.539 63.3883 336.048 54.8962 329.25 44.5C323 34.2612 323 34.2612 323 28C302.227 23.8376 302.227 23.8376 282.75 31C273.091 40.1432 272.318 54.0741 270.789 66.4297C270.531 68.3938 270.27 70.3577 270.008 72.3213C269.328 77.4556 268.674 82.5929 268.025 87.7313C267.491 91.9281 266.938 96.1223 266.383 100.316C265.72 105.333 265.066 110.35 264.414 115.367C264.29 116.319 264.167 117.27 264.039 118.25C263.69 120.946 263.347 123.642 263.007 126.339C262.904 127.131 262.801 127.923 262.695 128.739C262.183 132.84 261.722 136.861 262 141C263.735 142.875 263.735 142.875 266.125 144.25C273.073 149.217 277.331 156.135 278.828 164.578C279.257 170.615 278.378 176.609 277.438 182.563C275.687 196.321 277.984 210.175 286.106 221.613C296.902 235.215 311.85 242.631 329 245C348.719 246.422 364.381 240.921 379.504 228.18C381.006 226.868 382.497 225.544 383.965 224.195C390.643 218.108 397.977 215.959 407 216C411.48 216.578 415.718 217.573 420 219C422.859 216.171 425.711 213.336 428.563 210.5C429.363 209.709 430.162 208.917 430.987 208.102C431.776 207.315 432.566 206.529 433.379 205.719C434.097 205.007 434.814 204.294 435.553 203.561C437.5 201.524 439.337 199.46 441.169 197.324C445.508 192.333 450.202 187.729 454.914 183.094C456.34 181.682 457.765 180.269 459.19 178.856C462.666 175.41 466.147 171.969 469.636 168.536C471.605 166.597 473.57 164.654 475.531 162.707C477.367 160.884 479.209 159.067 481.057 157.257C488.841 149.505 494.077 143.217 494.375 131.938C494.393 121.599 490.979 115.802 483.938 108.438C480.095 104.481 480.095 104.481 475 103C473.034 103.482 473.034 103.482 471.125 104.375C459.713 109.319 444.502 108.169 433 104C425.581 100.87 420.264 96.7183 416.746 89.3867C412.771 79.3734 413.465 71.0727 417 61C421.315 52.5528 427.683 45.2365 436.613 41.7188C444.999 39.1936 452.959 39.3548 460.762 43.4492C472.475 50.5601 481.727 60.7314 486 74C486.062 75.5256 486.062 75.5256 486.125 77.082C486.501 84.1852 487.576 88.271 492.789 93.0608C494.685 94.6852 496.592 96.2963 498.5 97.9063C506.29 104.538 511.327 113.905 512.176 124.113C513.016 138.565 510.898 149.305 502 161C498.82 164.494 495.46 167.781 492.063 171.063C490.322 172.759 488.584 174.458 486.848 176.16C486.085 176.899 485.322 177.638 484.536 178.399C482.54 180.446 480.675 182.514 478.814 184.679C474.482 189.673 469.816 194.31 465.129 198.969C464.207 199.89 463.284 200.811 462.334 201.759C459.908 204.181 457.479 206.601 455.05 209.019C452.561 211.498 450.075 213.979 447.588 216.461C442.728 221.31 437.865 226.156 433 231C433.283 231.753 433.565 232.505 433.857 233.281C434.223 234.27 434.589 235.258 434.967 236.277C435.515 237.746 435.515 237.746 436.073 239.245C438.693 247.031 437.722 255.342 434.328 262.727C432.041 266.641 429.169 269.783 426 273C425.5 273.561 425 274.121 424.485 274.699C410.874 289.444 390.187 299.963 371 305C370.31 305.193 369.621 305.386 368.91 305.585C357.746 308.628 346.72 309.391 335.188 309.438C333.913 309.448 332.639 309.458 331.326 309.468C322.201 309.385 313.856 308.066 305 306C304.855 306.765 304.71 307.531 304.561 308.319C303.572 313.047 301.687 317.484 300 322C300.706 322.165 301.412 322.331 302.14 322.501C310.167 324.437 317.976 326.83 325.813 329.422C327.115 329.85 328.418 330.277 329.72 330.704C332.437 331.596 335.153 332.49 337.869 333.387C341.285 334.515 344.703 335.637 348.121 336.758C351.457 337.852 354.791 338.949 358.125 340.047C358.773 340.26 359.422 340.473 360.089 340.693C366.503 342.804 372.903 344.942 379.254 347.236C380.184 347.571 381.114 347.907 382.072 348.252C383.757 348.865 385.439 349.487 387.116 350.121C390.864 351.489 393.203 352.303 397 351C398.738 349.942 400.444 348.832 402.125 347.688C416.607 338.29 434.033 335.298 451.024 338.688C463.495 341.991 472.917 347.947 482 357C482.638 357.615 483.276 358.23 483.934 358.863C494.962 370.333 499.541 386.231 499.422 401.836C498.797 418.961 491.857 433.688 480 446C466.497 458.028 450.922 463.061 433 463C419.425 462.175 407.599 457.432 397 449C396.291 448.455 395.582 447.909 394.852 447.348C386.507 440.554 380.381 431.211 377 421C376.969 419.921 376.938 418.842 376.906 417.73C376.716 413.642 376.235 411.46 374 408C368.548 404.387 361.839 402.85 355.632 401.011C349.529 399.198 343.502 397.182 337.473 395.137C335.383 394.429 333.294 393.722 331.204 393.015C330.155 392.66 329.106 392.305 328.026 391.939C311.435 386.336 294.779 381.013 278 376C277.74 376.585 277.481 377.171 277.213 377.774C272.083 389.327 266.877 400.805 261 412C260.661 412.649 260.321 413.298 259.971 413.966C237.73 456.015 201.154 492.518 155.02 506.867C153.681 507.25 152.341 507.627 151 508C150.305 508.198 149.609 508.395 148.892 508.599C117.851 517.045 83.4238 513.032 55.5002 497.133C49.996 493.858 44.9504 490.055 40.0002 486C38.724 484.971 38.724 484.971 37.4221 483.922C20.1607 469.266 9.67473 449.324 3.00018 428C2.45684 426.275 2.45684 426.275 1.90252 424.516C-5.69629 394.403 1.3142 361.294 16.7971 334.953C32.6838 309.163 58.6456 290.977 87.8752 283.504C139.685 271.218 193.496 289.897 243 304C245.521 300.218 246.983 296.284 248.625 292.062C248.95 291.251 249.275 290.44 249.61 289.604C249.916 288.818 250.223 288.032 250.539 287.223C250.82 286.509 251.1 285.795 251.389 285.059C252.19 282.719 252.19 282.719 252 279C250.562 277.335 250.562 277.335 248.563 275.875C226.65 257.582 214.971 229.886 212.313 201.918C211.009 185.572 211.064 162.221 222 149C227.364 143.049 233.271 140.01 241 138C241.99 138 242.98 138 244 138C244.045 137.351 244.09 136.701 244.136 136.032C244.864 126.412 246.103 116.874 247.363 107.313C247.479 106.434 247.594 105.555 247.713 104.65C248.324 100.006 248.938 95.3627 249.556 90.7197C250.188 85.9605 250.806 81.1997 251.421 76.4383C251.901 72.7412 252.392 69.0455 252.886 65.3502C253.118 63.5967 253.346 61.8426 253.571 60.0881C255.778 42.8727 259.169 27.721 273 16C283.321 8.21692 295.3 6.04036 308 7.00001C314.394 8.03244 320.7 9.5098 327 11C327.209 10.4058 327.418 9.81149 327.633 9.19923C329.522 6.16122 331.668 5.33752 334.875 3.81251C335.924 3.30333 336.974 2.79415 338.055 2.26954C344.079 -0.32697 349.638 -0.217141 356.125 -0.24999ZM340.75 20.125C338.623 22.9855 338.623 22.9855 339.313 26.8125C341.605 33.7145 346.746 39.1504 352 44C352.763 44.7425 353.526 45.485 354.313 46.25C357.803 48.5225 360.884 49.4397 365 49C370.506 46.8217 374.462 43.3803 377 38C378.123 33.2216 378.421 29.3351 376.938 24.625C372.799 19.0171 368.053 17.5041 361.465 16.2969C354.214 15.4236 346.934 16.0819 340.75 20.125ZM434.75 64.1875C431.625 69.2106 430.72 73.9 431.5 79.75C433.824 84.785 436.976 87.1146 442 89.3125C450.67 91.3206 460.032 90.984 468 87C470.404 85.0588 470.404 85.0588 470.063 81.5C468.758 73.0415 461.438 65.282 455 60C447.05 55.2899 440.865 58.2426 434.75 64.1875ZM235 160C225.996 172.906 228.219 195.099 230.607 209.844C233.852 227.621 241.678 243.743 254 257C254.843 257.923 255.686 258.846 256.555 259.797C276.49 280.714 304.909 292.479 333.659 293.405C360.783 293.741 386.498 284.818 407 267C407.901 266.243 408.802 265.487 409.731 264.707C416.908 258.531 416.908 258.531 420.434 249.875C420.444 244.809 419.355 241.989 416 238C412.227 234.226 409.347 233.091 404 233C398.98 233.867 395.824 235.941 392.375 239.625C379.278 253.598 359.438 261.069 340.633 262.203C317.203 262.516 295.816 255.928 278.418 239.637C265.451 225.496 259.579 207.605 259.785 188.574C259.947 185.886 260.196 183.306 260.559 180.645C260.711 179.521 260.711 179.521 260.866 178.374C261.075 176.913 261.303 175.454 261.552 173.999C262.355 168.571 261.572 165.682 259 161C255.727 157.286 252.301 155.135 247.375 154.625C242.303 154.699 238.776 156.713 235 160ZM268 291C265.863 295.667 263.831 300.352 262 305.148C261.67 306.008 261.34 306.868 261 307.754C260.326 309.522 259.659 311.293 259 313.066C258.67 313.918 258.34 314.771 258 315.648C257.711 316.413 257.423 317.178 257.125 317.966C255.65 320.633 254.782 321.67 252 323C246.125 323.108 240.438 321.481 234.856 319.812C233.294 319.361 231.732 318.909 230.17 318.457C229.359 318.22 228.547 317.982 227.711 317.737C148.023 293.133 148.023 293.133 68.7099 309.075C44.0647 322.628 27.565 344.717 19.6877 371.5C12.5228 397.378 16.887 423.973 29.8127 447.125C33.3359 453.225 37.3139 458.741 42.0002 464C43.0134 465.137 43.0134 465.137 44.0471 466.297C60.4965 483.707 84.5209 494.615 108.453 495.301C110.719 495.32 112.985 495.324 115.25 495.312C116.443 495.307 117.636 495.301 118.865 495.295C127.633 495.175 135.547 494.469 144 492C144.667 491.817 145.333 491.635 146.02 491.446C163.858 486.489 180.819 477.935 195 466C195.573 465.524 196.147 465.048 196.737 464.557C207.272 455.795 216.531 446.823 225 436C225.643 435.18 225.643 435.18 226.298 434.344C243.225 412.551 255.346 387.287 265.535 361.746C267 359 267 359 268.684 357.535C277.091 355.593 286.363 360.21 294.25 362.848C295.75 363.343 297.251 363.838 298.752 364.333C302.703 365.637 306.652 366.95 310.6 368.264C314.531 369.572 318.465 370.87 322.399 372.17C333.784 375.934 345.166 379.707 356.531 383.531C357.657 383.909 358.783 384.287 359.943 384.676C362.004 385.369 364.064 386.065 366.124 386.763C367.459 387.212 367.459 387.212 368.82 387.67C369.586 387.929 370.352 388.188 371.141 388.455C372.997 389.094 372.997 389.094 375 389C375.243 388.25 375.485 387.5 375.735 386.727C376.237 385.191 376.237 385.191 376.75 383.625C377.075 382.627 377.4 381.63 377.735 380.602C379.348 376.009 381.165 371.508 383 367C377.378 365.055 371.752 363.119 366.125 361.188C365.247 360.886 364.369 360.584 363.464 360.273C351.831 356.28 340.169 352.382 328.468 348.593C326.476 347.947 324.483 347.301 322.491 346.655C316.575 344.735 310.657 342.821 304.733 340.927C301.666 339.944 298.603 338.949 295.539 337.957C294.416 337.601 293.293 337.246 292.136 336.879C291.106 336.544 290.076 336.208 289.014 335.863C287.664 335.43 287.664 335.43 286.287 334.988C283.872 333.945 282.584 333.091 281 331C280.111 323.936 282.37 318.58 285.063 312.125C285.831 310.255 286.593 308.383 287.348 306.508C287.858 305.28 287.858 305.28 288.379 304.028C289.267 301.96 289.267 301.96 288 300C285.984 298.877 285.984 298.877 283.528 297.836C282.628 297.436 281.729 297.037 280.803 296.625C279.857 296.213 278.912 295.8 277.938 295.375C276.514 294.745 276.514 294.745 275.061 294.102C272.71 293.062 270.356 292.028 268 291ZM401.688 370.25C393.077 381.156 389.774 393.339 391 407C392.737 415.986 396.186 422.981 402 430C402.5 430.636 403 431.271 403.516 431.926C409.941 439.243 420.871 444.439 430.445 445.852C444.918 446.692 456.884 442.646 467.938 433.375C476.202 425.681 481.233 414.555 482.238 403.344C482.595 389.694 478.057 377.955 469.004 367.75C459.356 358.402 447.811 354.688 434.705 354.688C421.445 354.935 410.757 360.616 401.688 370.25Z" fill="#FFC64D"/>
<path d="M222.997 340.372C224.319 340.745 225.641 341.115 226.965 341.48C228.773 341.982 230.574 342.504 232.375 343.027C233.872 343.456 233.872 343.456 235.398 343.894C238.417 345.177 239.982 346.418 242 349C244.941 356.988 238.102 366.894 234.801 374.051C233.646 376.476 232.486 378.897 231.312 381.312C231.006 381.946 230.699 382.579 230.384 383.231C213.22 418.552 186.208 452.914 147.988 466.469C126.553 473.667 103.681 474.91 82.7344 465.371C74.0163 461 66.9693 455.848 60 449C59.4457 448.459 58.8914 447.917 58.3203 447.359C44.9534 433.053 39.6156 413.144 39.7852 394.039C40.6267 372.347 50.5811 353.855 66 339C109.506 302.745 175.182 326.853 222.997 340.372ZM73 357C72.4354 357.541 71.8708 358.083 71.2891 358.641C61.7453 368.639 57.0733 383.398 56.625 396.937C57.1325 412.988 62.762 427.44 74 439C86.9638 450.643 102.122 455.563 119.363 455.246C148.102 453.301 171.305 435.635 190 415C202.926 399.878 211.444 382.532 219.91 364.664C220.314 363.813 220.717 362.962 221.133 362.084C222.128 360.068 222.128 360.068 222 358C215.037 356.087 208.07 354.187 201.102 352.293C198.743 351.651 196.385 351.006 194.027 350.359C130.242 332.001 130.242 332.001 73 357Z" fill="#FFC64D"/>
<path d="M455.219 375.473C461.848 380.704 465.675 387.68 467 396C467.93 404.079 465.993 411.536 461.457 418.301C454.969 426.184 448.385 429.625 438.246 430.844C430.086 431.237 423.325 429.21 417 424C409.884 417.07 406.159 410.34 405.688 400.375C405.818 391.608 408.963 384.059 415 377.723C426.644 367.694 442.458 367.003 455.219 375.473ZM425.75 392.562C422.802 396.669 422.858 398.84 423.512 403.746C424.254 407.172 425.326 408.727 428 411C431.647 412.967 435.048 414.274 439.223 413.687C443.732 412.204 446.648 410.234 449 406C450.247 401.807 450.323 398.885 448.812 394.75C446.29 390.922 444.404 388.468 440 387C433.402 386.511 430.118 387.588 425.75 392.562Z" fill="#FFC64D"/>
</g>
<defs>
<clipPath id="clip0_2031_594">
<rect width="512" height="512" fill="white"/>
</clipPath>
</defs>
</svg>
